<!-- Generated by IcoMoon.io -->
<svg version="1.1" xmlns="http://www.w3.org/2000/svg" width="576" height="448" viewBox="0 0 576 448">
<title>heart-broken</title>
<g id="icomoon-ignore">
</g>
<path fill="#2196f3" style="fill: var(--color1, #2196f3)" d="M373.5 409.75l-73.75-173.75c-29.25 57.25-61.5 117-89.25 173.75-0.25 0.25-13.5 0-13.5-0.25-42.25-98.75-86.5-196.75-128.75-295.75-10.25-24-44.5-63-68-62.75 0-2.75-0.25-9-0.25-12.75h145.75v12.5c-17.25 1-47.5 12-39 30.75 19.75 44.75 93.25 216.25 113 259.75 13.5-26.75 52-98.25 67.75-128.5-12.5-25.5-52.75-120.5-65.5-144-8.75-16-32.5-17.5-50.25-17.75v-12.5l128.25 0.25v11.75c-17.5 0.5-34.25 7-26.5 23.5 17 36 27.5 61.25 43.25 94.25 5-9.75 31.25-62.5 43.25-90.75 8-18.5-3.5-25.75-34.75-26.5 0.25-3.25 0-9.25 0.25-12.25 40-0.25 100-0.25 110.75-0.5v12.25c-20.25 0.75-41.25 11.5-52.25 28.5l-53.25 110.5c5.75 14.5 57 128.5 62.25 141l110.25-254.25c-7.75-20.75-32.75-25.25-42.5-25.5v-12.5l115 1 0.25 0.5-0.25 11c-25.25 0.75-40.5 14.25-50.25 36.25-22.5 52-93 216-139.75 322.75h-12.25z"></path>
</svg>
